<?xml version="1.0" standalone="no"?>
<!DOCTYPE svg PUBLIC "-//W3C//DTD SVG 20010904//EN"
 "http://www.w3.org/TR/2001/REC-SVG-20010904/DTD/svg10.dtd">
<svg version="1.0" xmlns="http://www.w3.org/2000/svg"
 width="298.000000pt" height="318.000000pt" viewBox="0 0 298.000000 318.000000"
 preserveAspectRatio="xMidYMid meet">

<g transform="translate(0.000000,318.000000) scale(0.100000,-0.100000)"
fill="#000000" stroke="none">
<path d="M1480 3105 c-88 -40 -129 -130 -107 -236 l7 -36 -234 -197 c-129
-108 -237 -196 -240 -196 -3 0 -6 8 -6 17 0 22 -6 14 -25 -29 l-15 -37 38 6
c45 7 51 11 32 23 -13 8 -13 11 0 23 29 27 435 363 448 371 8 5 27 -5 52 -28
69 -62 162 -70 236 -19 l37 25 136 -134 c75 -73 161 -156 192 -183 31 -28 -29
34 -133 136 l-190 187 22 43 c44 85 15 193 -68 249 -43 30 -132 37 -182 15z
m186 -31 c56 -45 76 -88 72 -156 -10 -154 -181 -230 -298 -132 -43 37 -63 80
-63 139 0 57 18 97 60 137 40 38 70 48 135 45 46 -3 65 -9 94 -33z"/>
<path d="M1550 2965 c0 -20 -5 -25 -25 -25 -14 0 -25 -4 -25 -10 0 -5 11 -10
25 -10 20 0 25 -5 25 -25 0 -14 5 -25 10 -25 6 0 10 11 10 25 0 20 5 25 25 25
14 0 25 5 25 10 0 6 -11 10 -25 10 -20 0 -25 5 -25 25 0 14 -4 25 -10 25 -5 0
-10 -11 -10 -25z"/>
<path d="M2088 2418 l-27 -28 27 -6 c41 -10 41 -10 16 -61 -29 -56 -30 -113
-5 -168 17 -38 65 -88 93 -97 10 -4 3 -34 -26 -119 -58 -168 -64 -179 -82
-172 -13 5 -14 0 -8 -33 3 -22 7 -40 8 -41 0 -1 16 12 34 28 29 26 30 29 11
29 -11 0 -19 4 -17 8 2 5 25 72 53 150 l49 141 41 -6 c26 -3 54 1 79 11 21 9
40 16 42 16 2 0 48 -64 104 -142 86 -122 98 -143 84 -151 -14 -8 -12 -12 16
-24 l33 -13 -31 -33 c-61 -63 -78 -147 -43 -222 17 -38 65 -88 93 -97 10 -4 3
-34 -26 -119 -58 -168 -64 -179 -82 -172 -13 5 -14 0 -8 -33 3 -22 7 -40 8
-41 0 -1 16 12 34 28 29 26 30 29 11 29 -11 0 -19 4 -17 8 2 5 25 72 53 150
l49 141 43 -6 c91 -12 193 70 209 169 22 135 -115 248 -254 209 l-32 -10 0 42
c-1 38 -2 40 -14 24 -13 -17 -23 -6 -115 123 -56 77 -101 144 -101 149 0 5 6
11 14 14 19 7 66 105 66 136 0 121 -102 212 -220 198 -28 -3 -64 -16 -80 -27
-29 -20 -30 -20 -36 -3 -15 48 -18 49 -46 21z m287 -29 c41 -27 85 -108 85
-154 0 -47 -40 -116 -86 -148 -61 -43 -116 -46 -183 -10 -178 93 -104 354 96
340 34 -2 64 -12 88 -28z m440 -670 c41 -28 85 -108 85 -153 -1 -73 -62 -152
-136 -176 -107 -36 -234 59 -234 173 0 42 22 101 48 131 52 59 168 71 237 25z"/>
<path d="M2260 2270 c0 -5 5 -10 10 -10 6 0 10 5 10 10 0 6 -4 10 -10 10 -5 0
-10 -4 -10 -10z"/>
<path d="M2238 2243 c17 -3 21 -8 13 -17 -8 -10 -4 -13 18 -13 19 0 27 5 24
13 -2 7 4 14 14 17 10 3 -7 5 -37 4 -30 0 -45 -2 -32 -4z"/>
<path d="M2586 1604 c-9 -8 -16 -24 -16 -34 0 -21 25 -50 44 -50 8 0 19 7 26
14 10 13 7 15 -17 13 -24 -2 -28 2 -28 23 0 21 4 25 28 23 24 -2 27 0 17 13
-16 18 -35 18 -54 -2z"/>
<path d="M2686 1604 c-9 -8 -16 -24 -16 -34 0 -22 25 -50 45 -50 20 0 45 28
45 50 0 22 -25 50 -45 50 -7 0 -21 -7 -29 -16z m49 -34 c0 -29 -32 -41 -41
-16 -9 24 4 48 23 44 12 -2 18 -12 18 -28z"/>
<path d="M2792 1608 c-19 -19 -14 -28 18 -39 40 -14 39 -33 -1 -25 -27 5 -30
4 -19 -9 16 -20 44 -19 61 1 11 14 10 18 -6 30 -10 8 -25 14 -32 14 -7 0 -13
5 -13 11 0 8 11 9 31 5 27 -5 30 -4 19 9 -15 18 -42 19 -58 3z"/>
<path d="M662 2422 c-38 -12 -93 -63 -113 -106 -26 -57 -24 -113 6 -172 l25
-49 -92 -137 c-73 -111 -94 -136 -104 -127 -11 9 -14 7 -14 -7 0 -11 -3 -30
-7 -42 l-6 -24 34 17 c44 23 46 25 29 35 -11 7 4 35 71 136 46 69 87 131 90
136 3 5 22 0 41 -12 57 -33 124 -36 179 -8 l47 24 81 -147 c44 -81 81 -150 81
-153 0 -3 -8 -6 -17 -6 -16 -1 -16 -2 2 -16 50 -38 55 -38 55 7 0 34 -2 39
-14 30 -11 -9 -27 12 -84 116 -38 71 -75 138 -81 150 -9 18 -6 31 19 78 32 61
36 89 20 147 -28 99 -143 160 -248 130z m163 -33 c41 -28 85 -108 85 -153 -1
-74 -64 -154 -139 -177 -107 -32 -231 62 -231 174 0 42 22 101 48 131 52 59
168 71 237 25z"/>
<path d="M670 2240 c0 -5 23 -10 50 -10 28 0 50 5 50 10 0 6 -22 10 -50 10
-27 0 -50 -4 -50 -10z"/>
<path d="M202 1752 c-38 -12 -93 -63 -113 -106 -59 -130 37 -276 182 -276 14
0 49 12 77 26 84 42 126 133 103 221 -28 104 -142 165 -249 135z m163 -33 c41
-28 85 -108 85 -153 -1 -73 -62 -152 -136 -176 -107 -36 -234 59 -234 173 0
42 22 101 48 131 52 59 168 71 237 25z"/>
<path d="M145 1624 c-9 -9 -13 -19 -9 -23 4 -3 9 0 11 7 6 17 42 15 49 -3 4
-9 -8 -31 -30 -55 -20 -22 -36 -42 -36 -45 0 -3 20 -5 45 -5 25 0 45 5 45 10
0 6 -14 10 -31 10 l-31 0 31 35 c35 41 37 48 15 69 -20 20 -38 20 -59 0z"/>
<path d="M305 1624 c-9 -9 -13 -19 -9 -23 4 -3 9 0 11 7 6 17 42 15 49 -3 4
-9 -8 -31 -30 -55 -20 -22 -36 -42 -36 -45 0 -3 20 -5 45 -5 25 0 45 5 45 10
0 6 -14 10 -31 10 l-31 0 31 35 c35 41 37 48 15 69 -20 20 -38 20 -59 0z"/>
<path d="M250 1510 c0 -5 5 -10 10 -10 6 0 10 5 10 10 0 6 -4 10 -10 10 -5 0
-10 -4 -10 -10z"/>
<path d="M1112 1752 c-38 -12 -93 -63 -113 -106 -33 -72 -19 -158 35 -216 l24
-25 -96 -172 c-72 -128 -100 -169 -109 -162 -9 8 -12 1 -15 -28 -2 -32 -6 -37
-23 -34 -11 2 -50 4 -87 5 -60 1 -70 -2 -105 -30 -76 -60 -102 -157 -64 -239
67 -147 272 -149 345 -3 41 82 29 157 -33 220 l-37 36 40 23 c31 18 37 24 23
27 -10 2 -17 9 -15 16 2 7 43 85 93 174 68 124 93 161 105 156 51 -23 110 -27
149 -12 l40 16 86 -161 c68 -129 82 -164 72 -172 -11 -8 -6 -15 20 -32 l33
-22 0 46 c0 38 -2 44 -14 34 -15 -13 -22 -3 -131 202 l-57 108 26 24 c31 29
65 99 66 135 1 133 -129 229 -258 192z m163 -33 c41 -28 85 -108 85 -153 -1
-73 -62 -152 -136 -176 -107 -36 -234 59 -234 173 0 42 22 101 48 131 52 59
168 71 237 25z m-440 -740 c41 -28 85 -108 85 -153 -1 -73 -62 -152 -136 -176
-107 -36 -234 59 -234 173 0 42 22 101 48 131 52 59 168 71 237 25z"/>
<path d="M1166 1611 c-4 -5 -2 -12 3 -15 5 -4 12 -2 15 3 4 5 2 12 -3 15 -5 4
-12 2 -15 -3z"/>
<path d="M1137 1563 c18 -2 50 -2 70 0 21 2 7 4 -32 4 -38 0 -55 -2 -38 -4z"/>
<path d="M1166 1531 c-4 -5 -2 -12 3 -15 5 -4 12 -2 15 3 4 5 2 12 -3 15 -5 4
-12 2 -15 -3z"/>
<path d="M680 905 c0 -3 10 -19 22 -35 l21 -29 -27 -36 c-16 -20 -25 -39 -22
-42 7 -7 45 38 46 55 0 6 5 12 10 12 6 0 10 -6 10 -12 1 -17 39 -62 46 -55 3
3 -6 22 -22 42 l-27 36 21 29 c24 32 27 40 14 40 -5 0 -15 -11 -22 -25 -7 -14
-16 -25 -20 -25 -4 0 -13 11 -20 25 -12 22 -30 34 -30 20z"/>
<path d="M1942 1682 c-38 -12 -93 -63 -113 -106 -59 -130 37 -276 182 -276 14
0 49 12 77 26 84 42 126 133 103 221 -28 104 -142 165 -249 135z m163 -33 c41
-28 85 -108 85 -153 -1 -73 -62 -152 -136 -176 -107 -36 -234 59 -234 173 0
42 22 101 48 131 52 59 168 71 237 25z"/>
<path d="M1960 1550 c0 -5 16 -10 35 -10 l34 0 -18 -32 c-24 -42 -35 -88 -21
-88 5 0 10 8 10 18 0 10 11 41 25 68 14 27 25 50 25 52 0 1 -20 2 -45 2 -25 0
-45 -4 -45 -10z"/>
<path d="M1522 1012 c-38 -12 -93 -63 -113 -106 -59 -130 37 -276 182 -276 14
0 49 12 77 26 84 42 126 133 103 221 -28 104 -142 165 -249 135z m163 -33 c41
-28 85 -108 85 -153 -1 -73 -62 -152 -136 -176 -107 -36 -234 59 -234 173 0
42 22 101 48 131 52 59 168 71 237 25z"/>
<path d="M1520 890 c0 -5 -7 -10 -15 -10 -8 0 -15 -4 -15 -10 0 -5 7 -10 15
-10 12 0 15 -13 15 -56 0 -34 4 -53 10 -49 6 3 10 37 10 76 0 39 -4 69 -10 69
-5 0 -10 -4 -10 -10z"/>
<path d="M1620 880 l-25 -20 23 0 c20 0 22 -5 22 -56 0 -34 4 -53 10 -49 11 7
14 145 3 145 -5 0 -19 -9 -33 -20z"/>
<path d="M2382 1012 c-38 -12 -93 -63 -113 -106 -59 -130 37 -276 182 -276 14
0 49 12 77 26 84 42 126 133 103 221 -28 104 -142 165 -249 135z m163 -33 c41
-28 85 -108 85 -153 -1 -73 -62 -152 -136 -176 -107 -36 -234 59 -234 173 0
42 22 101 48 131 52 59 168 71 237 25z"/>
<path d="M2380 887 c0 -4 11 -25 25 -45 14 -21 25 -51 25 -69 0 -18 5 -33 10
-33 6 0 10 15 10 33 0 18 11 49 26 70 14 21 24 41 21 43 -5 5 -41 -36 -51 -59
-5 -9 -8 -9 -12 1 -9 20 -53 68 -54 59z"/>
<path d="M920 475 c0 -3 10 -19 22 -35 l21 -29 -27 -36 c-16 -20 -25 -39 -22
-42 7 -7 45 38 46 55 0 6 5 12 10 12 6 0 10 -6 10 -12 1 -17 39 -62 46 -55 3
3 -6 22 -22 42 l-27 36 21 29 c24 32 27 40 14 40 -5 0 -15 -11 -22 -25 -7 -14
-16 -25 -20 -25 -4 0 -13 11 -20 25 -12 22 -30 34 -30 20z"/>
<path d="M104 408 c-39 -75 -39 -161 0 -236 34 -67 42 -63 16 6 -26 68 -26
156 0 224 26 69 18 73 -16 6z"/>
<path d="M1320 458 c0 -2 9 -27 20 -56 26 -68 26 -156 0 -224 -26 -69 -18 -73
16 -6 38 74 39 162 1 236 -23 43 -37 63 -37 50z"/>
<path d="M1684 398 c-39 -75 -39 -161 0 -236 34 -67 42 -63 16 6 -12 31 -20
77 -20 112 0 35 8 81 20 112 26 69 18 73 -16 6z"/>
<path d="M2800 448 c0 -2 9 -27 20 -56 26 -68 26 -156 0 -224 -26 -69 -18 -73
16 -6 38 74 39 162 1 236 -23 43 -37 63 -37 50z"/>
<path d="M764 380 c-39 -59 -39 -131 0 -190 34 -51 43 -48 16 5 -26 51 -26
129 0 180 27 53 18 56 -16 5z"/>
<path d="M1150 420 c0 -3 9 -23 20 -45 26 -51 26 -128 0 -180 -26 -51 -18 -57
13 -8 32 49 41 92 28 140 -9 32 -60 109 -61 93z"/>
<path d="M225 354 c-9 -9 -13 -19 -9 -23 4 -3 9 0 11 7 6 17 42 15 49 -3 4 -9
-8 -31 -30 -55 -20 -22 -36 -42 -36 -45 0 -3 20 -5 45 -5 25 0 45 5 45 10 0 6
-14 10 -31 10 l-31 0 31 35 c35 41 37 48 15 69 -20 20 -38 20 -59 0z"/>
<path d="M385 354 c-9 -9 -13 -19 -9 -23 4 -3 9 0 11 7 6 17 42 15 49 -3 4 -9
-8 -31 -30 -55 -20 -22 -36 -42 -36 -45 0 -3 20 -5 45 -5 25 0 45 5 45 10 0 6
-14 10 -31 10 l-31 0 31 35 c35 41 37 48 15 69 -20 20 -38 20 -59 0z"/>
<path d="M2530 367 c0 -4 11 -25 25 -45 14 -21 25 -51 25 -69 0 -18 5 -33 10
-33 6 0 10 15 10 33 0 18 11 49 26 70 14 21 24 41 21 43 -5 5 -41 -36 -51 -59
-5 -9 -8 -9 -12 1 -9 20 -53 68 -54 59z"/>
<path d="M2434 323 c-13 -30 -14 -44 -5 -75 6 -20 16 -40 21 -43 6 -4 6 4 0
20 -13 34 -13 91 0 116 6 10 8 19 5 19 -3 0 -13 -17 -21 -37z"/>
<path d="M2729 342 c14 -26 14 -82 1 -117 -6 -15 -6 -24 -1 -20 5 3 15 21 21
40 12 37 0 98 -22 111 -6 4 -6 -1 1 -14z"/>
<path d="M1760 340 c0 -5 16 -10 35 -10 l34 0 -18 -32 c-24 -42 -35 -88 -21
-88 5 0 10 8 10 18 0 10 11 41 25 68 14 27 25 50 25 52 0 1 -20 2 -45 2 -25 0
-45 -4 -45 -10z"/>
<path d="M1520 315 c0 -20 -5 -25 -25 -25 -14 0 -25 -4 -25 -10 0 -5 11 -10
25 -10 20 0 25 -5 25 -25 0 -14 5 -25 10 -25 6 0 10 11 10 25 0 20 5 25 25 25
14 0 25 5 25 10 0 6 -11 10 -25 10 -20 0 -25 5 -25 25 0 14 -4 25 -10 25 -5 0
-10 -11 -10 -25z"/>
<path d="M2106 314 c-9 -8 -16 -24 -16 -34 0 -21 25 -50 44 -50 8 0 19 7 26
14 10 13 7 15 -17 13 -24 -2 -28 2 -28 23 0 21 4 25 28 23 24 -2 27 0 17 13
-16 18 -35 18 -54 -2z"/>
<path d="M2206 314 c-9 -8 -16 -24 -16 -34 0 -22 25 -50 45 -50 20 0 45 28 45
50 0 22 -25 50 -45 50 -7 0 -21 -7 -29 -16z m49 -34 c0 -16 -6 -26 -18 -28
-19 -4 -32 20 -23 44 9 25 41 13 41 -16z"/>
<path d="M2312 318 c-19 -19 -14 -28 18 -39 40 -14 39 -33 -1 -25 -27 5 -30 4
-19 -9 16 -20 44 -19 61 1 11 14 10 18 -6 30 -10 8 -25 14 -32 14 -7 0 -13 5
-13 11 0 8 11 9 31 5 27 -5 30 -4 19 9 -15 18 -42 19 -58 3z"/>
<path d="M1950 310 c0 -5 5 -10 10 -10 6 0 10 5 10 10 0 6 -4 10 -10 10 -5 0
-10 -4 -10 -10z"/>
<path d="M560 290 c0 -5 23 -10 50 -10 28 0 50 5 50 10 0 6 -22 10 -50 10 -27
0 -50 -4 -50 -10z"/>
<path d="M903 293 c43 -2 110 -2 150 0 40 1 5 3 -78 3 -82 0 -115 -2 -72 -3z"/>
<path d="M1928 283 c17 -3 21 -8 13 -17 -8 -10 -4 -13 18 -13 19 0 27 5 24 13
-2 7 4 14 14 17 10 3 -7 5 -37 4 -30 0 -45 -2 -32 -4z"/>
<path d="M330 240 c0 -5 5 -10 10 -10 6 0 10 5 10 10 0 6 -4 10 -10 10 -5 0
-10 -4 -10 -10z"/>
<path d="M910 230 c0 -5 -7 -10 -15 -10 -8 0 -15 -4 -15 -10 0 -5 7 -10 15
-10 12 0 15 -13 15 -56 0 -34 4 -53 10 -49 6 3 10 37 10 76 0 39 -4 69 -10 69
-5 0 -10 -4 -10 -10z"/>
<path d="M1010 220 l-25 -20 23 0 c20 0 22 -5 22 -56 0 -34 4 -53 10 -49 11 7
14 145 3 145 -5 0 -19 -9 -33 -20z"/>
</g>
</svg>
